<?xml version="1.0" standalone="no"?>
<!DOCTYPE svg PUBLIC "-//W3C//DTD SVG 20010904//EN"
 "http://www.w3.org/TR/2001/REC-SVG-20010904/DTD/svg10.dtd">
<svg version="1.0" xmlns="http://www.w3.org/2000/svg"
 width="100.000000pt" height="100.000000pt" viewBox="0 0 100.000000 100.000000"
 preserveAspectRatio="xMidYMid meet">

<g transform="translate(0.000000,100.000000) scale(0.100000,-0.100000)"
fill="#6366F1" stroke="none">
<path d="M386 944 c-171 -41 -308 -192 -338 -371 -51 -303 217 -573 521 -526
96 15 171 52 242 119 72 69 113 139 134 225 26 113 17 203 -32 306 -21 46 -27
53 -39 41 -11 -11 -9 -23 13 -78 37 -87 39 -226 5 -310 -45 -112 -130 -197
-242 -242 -43 -17 -75 -22 -150 -22 -75 0 -107 5 -150 22 -112 45 -197 130
-242 242 -31 78 -31 222 0 300 62 154 197 253 362 267 79 7 175 -15 240 -55
55 -34 63 -66 26 -101 -24 -22 -27 -23 -43 -9 -52 45 -107 63 -193 62 -100 0
-161 -24 -225 -89 -65 -65 -89 -125 -89 -225 -1 -78 2 -90 33 -148 38 -70 70
-100 145 -140 43 -22 64 -26 136 -26 72 0 93 4 136 26 76 40 107 70 144 140
31 56 34 72 35 144 0 65 -5 90 -24 132 -22 47 -26 51 -40 38 -13 -13 -12 -20
5 -58 29 -65 26 -169 -8 -233 -65 -124 -198 -180 -333 -141 -110 32 -195 148
-195 266 0 118 85 234 195 266 74 21 145 14 214 -20 28 -15 51 -29 51 -33 0
-4 -14 -21 -31 -39 l-31 -32 -42 19 c-55 25 -102 24 -156 -3 -132 -67 -132
-249 0 -315 101 -52 215 -4 251 104 11 33 8 108 -5 121 -14 13 -30 -21 -30
-66 -2 -142 -174 -192 -253 -73 -43 63 -21 148 49 191 46 28 112 25 147 -7 9
-7 -63 -73 -80 -73 -39 0 -51 -52 -17 -74 22 -14 51 2 56 30 2 10 58 74 125
142 103 103 126 122 152 122 24 0 42 11 79 50 l48 50 -41 0 -41 0 0 42 0 42
-39 -38 -39 -38 -54 30 c-103 59 -221 75 -342 46z"/>
</g>
</svg>
