<?xml version="1.0" standalone="no"?>
<!DOCTYPE svg PUBLIC "-//W3C//DTD SVG 20010904//EN"
 "http://www.w3.org/TR/2001/REC-SVG-20010904/DTD/svg10.dtd">
<svg version="1.0" xmlns="http://www.w3.org/2000/svg"
 width="100.000000pt" height="100.000000pt" viewBox="0 0 100.000000 100.000000"
 preserveAspectRatio="xMidYMid meet">

<g transform="translate(0.000000,100.000000) scale(0.100000,-0.100000)"
fill="#6366F1" stroke="none">
<path d="M836 964 c-79 -17 -174 -58 -240 -103 -25 -17 -91 -83 -147 -146
l-101 -115 -88 0 -89 0 -56 -66 c-31 -36 -54 -71 -52 -78 2 -6 30 -18 63 -27
70 -19 75 -31 39 -94 -24 -40 -26 -49 -15 -75 14 -34 87 -105 119 -115 15 -4
36 2 67 20 62 36 74 31 93 -39 9 -33 21 -61 27 -63 7 -2 42 21 78 52 l66 56 1
92 0 92 42 33 c111 89 204 183 240 243 45 77 84 194 93 283 l7 66 -39 -1 c-22
0 -70 -7 -108 -15z m98 -66 c-21 -151 -78 -261 -188 -366 -107 -101 -353 -302
-370 -302 -31 0 -146 115 -146 146 0 17 201 263 302 370 112 118 223 172 396
193 9 1 11 -10 6 -41z m-624 -344 c0 -3 -19 -29 -42 -56 -40 -48 -43 -50 -81
-44 -71 12 -74 18 -32 65 36 39 40 41 96 41 33 0 59 -3 59 -6z m-46 -291 c52
-52 56 -59 40 -70 -21 -16 -40 -6 -88 47 -30 34 -35 44 -26 60 6 11 12 20 14
20 2 0 29 -26 60 -57z m255 -107 c-47 -44 -53 -41 -65 31 -6 39 -5 41 47 82
l54 43 3 -58 c3 -58 2 -60 -39 -98z"/>
<path d="M631 766 c-87 -48 -50 -186 49 -186 51 0 100 49 100 99 0 75 -83 124
-149 87z m89 -46 c11 -11 20 -29 20 -40 0 -11 -9 -29 -20 -40 -11 -11 -29 -20
-40 -20 -11 0 -29 9 -40 20 -11 11 -20 29 -20 40 0 11 9 29 20 40 11 11 29 20
40 20 11 0 29 -9 40 -20z"/>
<path d="M74 205 c-49 -29 -65 -60 -72 -144 l-5 -64 66 6 c84 8 116 25 145 75
26 47 27 58 7 66 -10 4 -21 -7 -35 -34 -23 -45 -38 -55 -97 -64 -49 -7 -51 -1
-33 66 8 29 21 44 55 63 29 17 42 31 38 41 -7 20 -22 18 -69 -11z"/>
</g>
</svg>
